HIERARCHY
ROOT root
{
	OFFSET 0.000000 0.000000 0.000000
	CHANNELS 6 Xposition Yposition Zposition Zrotation Yrotation Xrotation
	JOINT lhip
	{
		OFFSET 0.058581 -0.082280 -0.017664
		CHANNELS 3 Zrotation Yrotation Xrotation
		JOINT lknee
		{
			OFFSET 0.043451 -0.386469 0.008037
			CHANNELS 3 Zrotation Yrotation Xrotation
			JOINT lankle
			{
				OFFSET -0.014790 -0.426874 -0.037428
				CHANNELS 3 Zrotation Yrotation Xrotation
				JOINT ltoe
				{
					OFFSET 0.041054 -0.060286 0.122042
					CHANNELS 3 Zrotation Yrotation Xrotation
					End Site
					{
						OFFSET 0.000000 0.000000 0.000000
					}
				}
			}
		}
	}
	JOINT rhip
	{
		OFFSET -0.060310 -0.090513 -0.013543
		CHANNELS 3 Zrotation Yrotation Xrotation
		JOINT rknee
		{
			OFFSET -0.043257 -0.383688 -0.004843
			CHANNELS 3 Zrotation Yrotation Xrotation
			JOINT rankle
			{
				OFFSET 0.019056 -0.420046 -0.034562
				CHANNELS 3 Zrotation Yrotation Xrotation
				JOINT rtoe
				{
					OFFSET -0.034840 -0.062106 0.130323
					CHANNELS 3 Zrotation Yrotation Xrotation
					End Site
					{
						OFFSET 0.000000 0.000000 0.000000
					}
				}
			}
		}
	}
	JOINT lowerback
	{
		OFFSET 0.004439 0.124404 -0.038385
		CHANNELS 3 Zrotation Yrotation Xrotation
		JOINT upperback
		{
			OFFSET 0.004488 0.137956 0.026820
			CHANNELS 3 Zrotation Yrotation Xrotation
			JOINT chest
			{
				OFFSET -0.002265 0.056032 0.002855
				CHANNELS 3 Zrotation Yrotation Xrotation
				JOINT lowerneck
				{
					OFFSET -0.013390 0.211636 -0.033468
					CHANNELS 3 Zrotation Yrotation Xrotation
					JOINT upperneck
					{
						OFFSET 0.010113 0.088937 0.050410
						CHANNELS 3 Zrotation Yrotation Xrotation
						End Site
						{
							OFFSET 0.000000 0.000000 0.000000
						}
					}
				}
				JOINT lclavicle
				{
					OFFSET 0.071702 0.114000 -0.018898
					CHANNELS 3 Zrotation Yrotation Xrotation
					JOINT lshoulder
					{
						OFFSET 0.122921 0.045205 -0.019046
						CHANNELS 3 Zrotation Yrotation Xrotation
						JOINT lelbow
						{
							OFFSET 0.255332 -0.015649 -0.022946
							CHANNELS 3 Zrotation Yrotation Xrotation
							JOINT lwrist
							{
								OFFSET 0.265709 0.012698 -0.007375
								CHANNELS 3 Zrotation Yrotation Xrotation
								End Site
								{
									OFFSET 0.000000 0.000000 0.000000
								}
							}
						}
					}
				}
				JOINT rclavicle
				{
					OFFSET -0.082954 0.112472 -0.023707
					CHANNELS 3 Zrotation Yrotation Xrotation
					JOINT rshoulder
					{
						OFFSET -0.113228 0.046853 -0.008472
						CHANNELS 3 Zrotation Yrotation Xrotation
						JOINT relbow
						{
							OFFSET -0.260127 -0.014369 -0.031269
							CHANNELS 3 Zrotation Yrotation Xrotation
							JOINT rwrist
							{
								OFFSET -0.269108 0.006794 -0.006027
								CHANNELS 3 Zrotation Yrotation Xrotation
								End Site
								{
									OFFSET 0.000000 0.000000 0.000000
								}
							}
						}
					}
				}
			}
		}
	}
}
MOTION
Frames: 10
Frame Time: 0.033333
1.173918 0.157323 0.990663 -87.588523 3.497236 87.241536 1.135079 0.486188 7.335388 -3.288770 -14.704501 0.022318 5.735679 8.532101 -15.070363 0.000000 -0.000000 0.000000 3.743502 -0.852373 3.002897 3.777143 2.567980 7.748613 2.478506 -4.405420 -11.608472 0.000000 -0.000000 0.000000 -3.427634 0.883511 2.422280 3.090394 -3.210911 3.371975 1.112632 -3.239101 5.386439 5.485800 -4.338098 8.187248 1.906419 -8.666525 10.428455 -26.292184 7.689611 3.108256 -61.289335 -6.962464 7.238522 10.601369 -20.489994 4.118076 -4.925514 0.739071 -6.548393 25.295818 -5.990043 -0.178001 61.169334 0.793274 11.093808 -14.328625 21.478738 -2.689491 8.544353 -0.627053 -7.404533 
1.173437 0.157121 0.989973 -88.012011 3.744338 85.535289 1.474602 1.343673 9.395871 -3.148737 -15.045682 -0.277482 5.813566 8.442080 -15.250190 0.000000 -0.000000 0.000000 3.849975 -1.265380 4.927365 3.708294 2.787882 7.720749 2.732404 -3.989498 -11.648073 0.000000 -0.000000 0.000000 -2.715225 0.949952 4.562582 2.641233 -2.853689 3.209486 0.990100 -3.082897 5.775152 5.597278 -4.521880 7.416475 2.065346 -8.614642 10.684462 -25.852477 7.391564 2.769858 -61.310357 -7.295806 6.984466 9.978912 -20.387554 4.101089 -5.224375 0.207252 -7.521832 24.471796 -5.749105 -0.724437 62.157499 0.178041 10.814669 -14.749787 21.058047 -3.140635 8.091336 -1.487482 -8.063286 
1.173145 0.157422 0.989592 -88.123730 3.693271 85.668640 1.432655 1.378469 9.257799 -3.189904 -15.009187 -0.236686 5.805026 8.541142 -15.124127 0.000000 -0.000000 0.000000 3.685974 -1.576821 4.581802 3.843703 3.153167 8.129283 2.783928 -4.116918 -11.564444 0.000000 -0.000000 0.000000 -2.801999 1.076491 4.385294 2.689965 -2.834617 3.289427 0.947230 -3.184875 5.953179 5.782622 -4.739024 7.517745 2.341543 -8.717010 10.515268 -25.990322 7.450041 2.571936 -60.819397 -7.295289 7.031663 9.658991 -20.869302 4.054894 -5.259687 0.176440 -7.509156 24.530891 -6.043144 -0.874853 61.851669 -0.050993 10.796797 -14.549062 21.632724 -3.217187 8.087643 -1.585132 -7.873661 
1.172520 0.157438 0.989533 -88.151374 3.770719 85.838398 1.522207 1.346749 9.148336 -3.180400 -14.972166 -0.289215 5.775983 8.521415 -14.940438 0.000000 -0.000000 0.000000 3.786204 -1.429613 4.441446 3.852951 3.338919 8.168397 2.811879 -4.319777 -11.488472 0.000000 -0.000000 0.000000 -2.864636 0.998015 4.213498 2.806533 -2.850886 3.271975 1.005572 -3.161054 6.095741 5.918667 -4.766254 7.208409 2.182288 -8.757325 10.405762 -26.007305 7.629034 2.321340 -60.691558 -7.286708 7.206310 9.547862 -21.559886 4.339940 -5.288776 0.095334 -7.511609 24.443754 -6.157243 -1.020198 61.718607 -0.133133 10.945439 -14.617570 21.917789 -3.262932 7.933461 -1.541424 -7.787999 
1.172570 0.157149 0.989661 -88.108743 3.763446 85.825810 1.461136 1.313563 9.136635 -3.139380 -14.952216 -0.236222 5.753982 8.534622 -14.886228 0.000000 -0.000000 0.000000 3.803023 -1.338958 4.382185 3.842507 3.365390 8.265576 2.843456 -4.520774 -11.536298 0.000000 -0.000000 0.000000 -2.856709 0.998667 4.296778 2.812901 -2.872955 3.315591 0.988174 -3.172598 6.142592 5.999604 -4.721028 7.015822 2.277527 -8.839283 10.333507 -26.085788 7.552650 2.187221 -60.498777 -7.367793 7.291341 9.514137 -21.885963 4.168595 -4.983307 0.037556 -7.343727 24.507796 -6.161121 -1.136827 61.588454 -0.108107 11.024514 -14.610832 22.257223 -3.441142 7.733721 -1.639645 -7.805450 
1.172426 0.157153 0.989698 -88.142544 3.787252 85.788889 1.509358 1.362280 9.161560 -3.204889 -14.885153 -0.198061 5.710803 8.553599 -14.892466 0.000000 -0.000000 0.000000 3.791832 -1.303791 4.467511 3.887471 3.271227 8.198289 2.739872 -4.445050 -11.562182 0.000000 -0.000000 0.000000 -2.822070 0.973178 4.246782 2.769475 -2.862338 3.498476 0.941476 -3.159069 6.030936 5.799873 -4.503587 7.600741 2.326041 -8.480035 10.480361 -25.971059 7.292086 2.450094 -60.527428 -7.480009 7.311994 9.769587 -22.515833 4.063627 -4.587617 0.040733 -7.512267 24.468330 -6.057831 -0.933200 61.657699 -0.025323 11.025118 -14.787273 22.779595 -3.342059 7.526442 -1.786606 -7.941296 
1.172314 0.157584 0.989493 -88.176321 3.809371 85.801487 1.595308 1.391199 9.167965 -3.228071 -14.884137 -0.240216 5.669008 8.559138 -14.787515 0.000000 -0.000000 0.000000 3.828362 -1.160813 4.569778 3.805452 2.980781 8.002316 2.895617 -4.247461 -11.405943 0.000000 -0.000000 0.000000 -2.837755 0.907264 4.274770 2.743227 -2.847696 3.533393 0.955553 -3.078647 5.940770 5.733191 -4.312563 7.814738 2.463072 -8.334023 10.616539 -25.848682 7.378133 2.374417 -60.696267 -7.602955 7.287214 9.917869 -23.084655 3.855743 -4.207752 0.112692 -7.645825 24.468926 -6.103489 -0.948888 61.648219 0.168306 11.044717 -14.870421 23.313047 -3.358739 7.489919 -1.558388 -7.891876 
1.172277 0.157801 0.989557 -88.281699 3.820812 85.767326 1.618400 1.385640 9.257933 -3.215494 -14.843373 -0.346241 5.554389 8.541292 -14.743143 0.000000 -0.000000 0.000000 3.874210 -1.041800 4.637019 3.808670 2.933532 7.935522 2.920033 -4.265259 -11.342758 0.000000 -0.000000 0.000000 -2.849526 0.901581 4.260021 2.748368 -2.814185 3.607483 0.930650 -3.081991 5.992982 5.746867 -4.392244 7.881305 2.371243 -8.415328 10.714669 -25.847748 7.345576 2.379497 -60.758567 -7.790061 7.463632 9.962950 -23.738024 3.661610 -4.007163 -0.206066 -8.107658 24.443393 -5.965953 -1.097915 61.695733 0.489068 11.147590 -14.766378 23.428445 -3.437609 7.338037 -1.590241 -8.119412 
1.172498 0.157983 0.989538 -88.194733 3.859107 85.787613 1.696834 1.408010 9.151272 -3.256730 -14.786234 -0.236073 5.475599 8.416100 -14.772296 0.000000 -0.000000 0.000000 3.920886 -1.068546 4.649341 3.780036 2.909019 7.839718 2.963608 -4.230098 -11.240787 0.000000 -0.000000 0.000000 -2.799981 0.815250 4.347645 2.713028 -2.856602 3.565274 0.943059 -3.057927 5.975541 5.733171 -4.320631 7.765775 2.459785 -8.369828 10.735133 -25.917209 7.253837 2.340799 -60.844286 -7.951014 7.469046 10.242360 -24.174540 2.885289 -2.864081 -0.116298 -8.219579 24.460503 -5.838370 -1.234412 61.683000 0.612501 11.236383 -14.761972 23.864941 -3.610203 6.999492 -1.534308 -8.150028 
1.172716 0.158155 0.989489 -88.176964 3.827331 85.811749 1.671985 1.438906 9.105231 -3.240857 -14.748529 -0.253342 5.493073 8.382192 -14.791519 0.000000 -0.000000 0.000000 3.922640 -1.058403 4.556537 3.738895 2.851969 7.927969 3.037166 -4.220878 -11.317089 0.000000 -0.000000 0.000000 -2.846037 0.753885 4.351522 2.714647 -2.857764 3.579998 0.955160 -3.057925 5.927066 5.738464 -4.314308 7.824674 2.287782 -8.287953 10.890971 -25.888156 7.217569 2.352219 -60.930741 -8.090312 7.547540 10.228718 -24.909162 2.853330 -2.627779 -0.018407 -8.204241 24.432308 -5.748999 -1.265692 61.728357 0.861767 11.296741 -14.885647 24.205568 -3.703997 6.902764 -1.400066 -8.049410 
